Abduction_states
version=1
nRows=15
nColumns=41
inDegrees=yes

# SIMM Motion File Header:
name Abduction_states
datacolumns 41
datarows 15
otherdata 1
range 2.03309933 4.57310166
endheader
time	/jointset/ground_thorax/thorax_tilt/value	/jointset/ground_thorax/thorax_tilt/speed	/jointset/ground_thorax/thorax_list/value	/jointset/ground_thorax/thorax_list/speed	/jointset/ground_thorax/thorax_rotation/value	/jointset/ground_thorax/thorax_rotation/speed	/jointset/ground_thorax/thorax_tx/value	/jointset/ground_thorax/thorax_tx/speed	/jointset/ground_thorax/thorax_ty/value	/jointset/ground_thorax/thorax_ty/speed	/jointset/ground_thorax/thorax_tz/value	/jointset/ground_thorax/thorax_tz/speed	/jointset/sternoclavicular/sternoclavicular_r2/value	/jointset/sternoclavicular/sternoclavicular_r2/speed	/jointset/sternoclavicular/sternoclavicular_r3/value	/jointset/sternoclavicular/sternoclavicular_r3/speed	/jointset/unrotscap/unrotscap_r3/value	/jointset/unrotscap/unrotscap_r3/speed	/jointset/unrotscap/unrotscap_r2/value	/jointset/unrotscap/unrotscap_r2/speed	/jointset/acromioclavicular/acromioclavicular_r2/value	/jointset/acromioclavicular/acromioclavicular_r2/speed	/jointset/acromioclavicular/acromioclavicular_r3/value	/jointset/acromioclavicular/acromioclavicular_r3/speed	/jointset/acromioclavicular/acromioclavicular_r1/value	/jointset/acromioclavicular/acromioclavicular_r1/speed	/jointset/unrothum/unrothum_r1/value	/jointset/unrothum/unrothum_r1/speed	/jointset/unrothum/unrothum_r3/value	/jointset/unrothum/unrothum_r3/speed	/jointset/unrothum/unrothum_r2/value	/jointset/unrothum/unrothum_r2/speed	/jointset/shoulder0/elv_angle/value	/jointset/shoulder0/elv_angle/speed	/jointset/shoulder1/shoulder_elv/value	/jointset/shoulder1/shoulder_elv/speed	/jointset/shoulder1/shoulder1_r2/value	/jointset/shoulder1/shoulder1_r2/speed	/jointset/shoulder2/shoulder_rot/value	/jointset/shoulder2/shoulder_rot/speed
      2.03309933	     -0.00000000	     -0.00000000	     -0.00000000	     -0.00000000	      0.00000000	     -0.00000000	      0.00000000	     -0.00000000	      0.00000000	     -0.00000000	      0.00000000	     -0.00000000	    -18.96476271	     13.18977173	      8.03257207	     -5.58656038	     -8.03257207	      5.58656038	     18.96476271	    -13.18977173	     -3.83994911	      2.67063991	     31.03270381	    -21.58288430	     13.94930064	     -9.70157624	    -13.94930064	      9.70157624	    -31.03270381	     21.58288430	      3.83994911	     -2.67063991	     30.00000000	      0.00000000	     78.36753022	    -54.50370513	    -30.00000000	     -0.00000000	     -0.00000000	     -0.00000000
      2.07476782	     -0.00000000	     -0.00000000	     -0.00000000	     -0.00000000	     -0.00000000	     -0.00000000	      0.00000000	     -0.00000000	     -0.00000000	     -0.00000000	      0.00000000	     -0.00000000	    -18.35861949	     15.72470770	      7.77583861	     -6.66023877	     -7.77583861	      6.66023877	     18.35861949	    -15.72470770	     -3.71721839	      3.18390893	     30.04085049	    -25.73088859	     13.50345937	    -11.56611757	    -13.50345937	     11.56611757	    -30.04085049	     25.73088859	      3.71721839	     -3.18390893	     30.00000000	      0.00000000	     75.86278246	    -64.97874634	    -30.00000000	     -0.00000000	     -0.00000000	     -0.00000000
      2.11643632	     -0.00000000	     -0.00000000	     -0.00000000	     -0.00000000	     -0.00000000	     -0.00000000	      0.00000000	     -0.00000000	     -0.00000000	     -0.00000000	      0.00000000	     -0.00000000	    -17.66846227	     17.24728400	      7.48352082	     -7.30512972	     -7.48352082	      7.30512972	     17.66846227	    -17.24728400	     -3.57747666	      3.49219729	     28.91152211	    -28.22233340	     12.99582261	    -12.68603006	    -12.99582261	     12.68603006	    -28.91152211	     28.22233340	      3.57747666	     -3.49219729	     30.00000000	      0.00000000	     73.01086610	    -71.27044356	    -30.00000000	     -0.00000000	     -0.00000000	     -0.00000000
      2.17657146	     -0.00000000	     -0.00000000	     -0.00000000	     -0.00000000	     -0.00000000	     -0.00000000	      0.00000000	     -0.00000000	     -0.00000000	     -0.00000000	     -0.00000000	     -0.00000000	    -16.59947730	     18.08777033	      7.03074959	     -7.66111978	     -7.03074959	      7.66111978	     16.59947730	    -18.08777033	     -3.36103062	      3.66237736	     27.16230466	    -29.59765054	     12.20954372	    -13.30423956	    -12.20954372	     13.30423956	    -27.16230466	     29.59765054	      3.36103062	     -3.66237736	     30.00000000	      0.00000000	     68.59353102	    -74.74356045	    -30.00000000	     -0.00000000	     -0.00000000	     -0.00000000
      2.23055854	     -0.00000000	     -0.00000000	     -0.00000000	     -0.00000000	     -0.00000000	     -0.00000000	      0.00000000	     -0.00000000	     -0.00000000	     -0.00000000	     -0.00000000	     -0.00000000	    -15.62278895	     18.00194004	      6.61707083	     -7.62476615	     -6.61707083	      7.62476615	     15.62278895	    -18.00194004	     -3.16327262	      3.64499861	     25.56411539	    -29.45720344	     11.49115248	    -13.24110813	    -11.49115248	     13.24110813	    -25.56411539	     29.45720344	      3.16327262	     -3.64499861	     30.00000000	      0.00000000	     64.55759052	    -74.38888647	    -30.00000000	     -0.00000000	     -0.00000000	     -0.00000000
      2.28454562	     -0.00000000	     -0.00000000	     -0.00000000	     -0.00000000	     -0.00000000	     -0.00000000	     -0.00000000	     -0.00000000	     -0.00000000	     -0.00000000	     -0.00000000	     -0.00000000	    -14.66270198	     17.52173687	      6.21042363	     -7.42137491	     -6.21042363	      7.42137491	     14.66270198	    -17.52173687	     -2.96887603	      3.54776798	     23.99309154	    -28.67143022	     10.78497218	    -12.88790053	    -10.78497218	     12.88790053	    -23.99309154	     28.67143022	      2.96887603	     -3.54776798	     30.00000000	      0.00000000	     60.59025143	    -72.40455707	    -30.00000000	     -0.00000000	     -0.00000000	     -0.00000000
      2.33853271	     -0.00000000	     -0.00000000	     -0.00000000	     -0.00000000	     -0.00000000	     -0.00000000	     -0.00000000	     -0.00000000	     -0.00000000	     -0.00000000	     -0.00000000	     -0.00000000	    -13.73399223	     16.86472769	      5.81706632	     -7.14309705	     -5.81706632	      7.14309705	     13.73399223	    -16.86472769	     -2.78083265	      3.41473801	     22.47341133	    -27.59634315	     10.10187101	    -12.40464542	    -10.10187101	     12.40464542	    -22.47341133	     27.59634315	      2.78083265	     -3.41473801	     30.00000000	      0.00000000	     56.75257148	    -69.68961740	    -30.00000000	     -0.00000000	     -0.00000000	     -0.00000000
      2.40601096	     -0.00000000	     -0.00000000	     -0.00000000	     -0.00000000	     -0.00000000	     -0.00000000	     -0.00000000	     -0.00000000	     -0.00000000	     -0.00000000	     -0.00000000	     -0.00000000	    -12.62655819	     15.94874890	      5.34800989	     -6.75513197	     -5.34800989	      6.75513197	     12.62655819	    -15.94874890	     -2.55660151	      3.22927237	     20.66127831	    -26.09749504	      9.28731137	    -11.73090835	     -9.28731137	     11.73090835	    -20.66127831	     26.09749504	      2.55660151	     -3.22927237	     30.00000000	      0.00000000	     52.17635441	    -65.90454520	    -30.00000000	     -0.00000000	     -0.00000000	     -0.00000000
      2.48905849	     -0.00000000	     -0.00000000	     -0.00000000	     -0.00000000	     -0.00000000	     -0.00000000	     -0.00000000	     -0.00000000	     -0.00000000	     -0.00000000	     -0.00000000	     -0.00000000	    -11.35047228	     14.77950163	      4.80752056	     -6.25989440	     -4.80752056	      6.25989440	     11.35047228	    -14.77950163	     -2.29822206	      2.99252540	     18.57317435	    -24.18421488	      8.34870189	    -10.87088274	     -8.34870189	     10.87088274	    -18.57317435	     24.18421488	      2.29822206	     -2.99252540	     30.00000000	      0.00000000	     46.90322221	    -61.07289916	    -30.00000000	     -0.00000000	     -0.00000000	     -0.00000000
      2.60088439	     -0.00000000	     -0.00000000	     -0.00000000	     -0.00000000	     -0.00000000	     -0.00000000	     -0.00000000	     -0.00000000	     -0.00000000	     -0.00000000	     -0.00000000	     -0.00000000	     -9.78626733	     13.19682986	      4.14499769	     -5.58954987	     -4.14499769	      5.58954987	      9.78626733	    -13.19682986	     -1.98150481	      2.67206903	     16.01361115	    -21.59443377	      7.19816996	     -9.70676776	     -7.19816996	      9.70676776	    -16.01361115	     21.59443377	      1.98150481	     -2.67206903	     30.00000000	      0.00000000	     40.43950417	    -54.53287124	    -30.00000000	     -0.00000000	     -0.00000000	     -0.00000000
      2.77116496	     -0.00000000	     -0.00000000	     -0.00000000	     -0.00000000	     -0.00000000	     -0.00000000	     -0.00000000	     -0.00000000	     -0.00000000	     -0.00000000	     -0.00000000	     -0.00000000	     -7.74314538	     10.80488253	      3.27962834	     -4.57643467	     -3.27962834	      4.57643467	      7.74314538	    -10.80488253	     -1.56781736	      2.18775208	     12.67037931	    -17.68040678	      5.69537644	     -7.94739998	     -5.69537644	      7.94739998	    -12.67037931	     17.68040678	      1.56781736	     -2.18775208	     30.00000000	      0.00000000	     31.99677152	    -44.64869775	    -30.00000000	     -0.00000000	     -0.00000000	     -0.00000000
      3.09057493	     -0.00000000	     -0.00000000	     -0.00000000	     -0.00000000	     -0.00000000	     -0.00000000	     -0.00000000	     -0.00000000	     -0.00000000	     -0.00000000	     -0.00000000	     -0.00000000	     -4.99831898	      6.40098336	      2.11705034	     -2.71115231	     -2.11705034	      2.71115231	      4.99831898	     -6.40098336	     -1.01205013	      1.29605895	      8.17892398	    -10.47415271	      3.67645276	     -4.70816549	     -3.67645276	      4.70816549	     -8.17892398	     10.47415271	      1.01205013	     -1.29605895	     30.00000000	      0.00000000	     20.65440627	    -26.45059496	    -30.00000000	     -0.00000000	     -0.00000000	     -0.00000000
      3.70905023	     -0.00000000	     -0.00000000	     -0.00000000	     -0.00000000	     -0.00000000	     -0.00000000	     -0.00000000	     -0.00000000	     -0.00000000	     -0.00000000	     -0.00000000	     -0.00000000	     -3.59441865	     -1.78396581	      1.52242489	      0.75560312	     -1.52242489	     -0.75560312	      3.59441865	      1.78396581	     -0.72779106	     -0.36121401	      5.88167282	      2.91916559	      2.64383094	      1.31217436	     -2.64383094	     -1.31217436	     -5.88167282	     -2.91916559	      0.72779106	      0.36121401	     30.00000000	      0.00000000	     14.85311031	      7.37182937	    -30.00000000	     -0.00000000	     -0.00000000	     -0.00000000
      4.43237737	     -0.00000000	     -0.00000000	     -0.00000000	     -0.00000000	     -0.00000000	     -0.00000000	     -0.00000000	      0.00000000	     -0.00000000	      0.00000000	     -0.00000000	     -0.00000000	     -8.16996994	    -10.75652943	      3.46041094	      4.55595460	     -3.46041094	     -4.55595460	      8.16996994	     10.75652943	     -1.65423999	     -2.17796164	     13.36880725	     17.60128491	      6.00932206	      7.91183445	     -6.00932206	     -7.91183445	    -13.36880725	    -17.60128491	      1.65423999	      2.17796164	     30.00000000	      0.00000000	     33.76052608	     44.44888965	    -30.00000000	     -0.00000000	     -0.00000000	     -0.00000000
      4.57310166	     -0.00000000	     -0.00000000	     -0.00000000	     -0.00000000	     -0.00000000	     -0.00000000	     -0.00000000	      0.00000000	     -0.00000000	     -0.00000000	     -0.00000000	     -0.00000000	     -9.80123163	    -12.42254418	      4.15133585	      5.26159926	     -4.15133585	     -5.26159926	      9.80123163	     12.42254418	     -1.98453475	     -2.51529314	     16.03809775	     20.32744306	      7.20917676	      9.13725134	     -7.20917676	     -9.13725134	    -16.03809775	    -20.32744306	      1.98453475	      2.51529314	     30.00000000	      0.00000000	     40.50134070	     51.33331334	    -30.00000000	     -0.00000000	     -0.00000000	     -0.00000000
